<svg width="16" height="16" viewBox="0 0 16 16" fill="none" xmlns="http://www.w3.org/2000/svg">
<path d="M13.3333 7.33333H12.6666V4.66667H13.3333V2.66667H14.6666V4.66667H15.3333V7.33333H14.6666V12C14.6666 12.5304 14.4559 13.0391 14.0808 13.4142C13.7057 13.7893 13.197 14 12.6666 14C12.1362 14 11.6274 13.7893 11.2524 13.4142C10.8773 13.0391 10.6666 12.5304 10.6666 12V9.33333H9.33325V12.6667H9.99992V14H1.33325V12.6667H1.99992V2.66667C1.99992 2.48986 2.07016 2.32029 2.19518 2.19526C2.32021 2.07024 2.48977 2 2.66659 2H8.66659C8.8434 2 9.01297 2.07024 9.13799 2.19526C9.26301 2.32029 9.33325 2.48986 9.33325 2.66667V8H10.6666C11.0202 8 11.3593 8.14048 11.6094 8.39052C11.8594 8.64057 11.9999 8.97971 11.9999 9.33333V12C11.9999 12.1768 12.0702 12.3464 12.1952 12.4714C12.3202 12.5964 12.4898 12.6667 12.6666 12.6667C12.8434 12.6667 13.013 12.5964 13.138 12.4714C13.263 12.3464 13.3333 12.1768 13.3333 12V7.33333ZM7.99992 12.6667V3.33333H3.33325V12.6667H7.99992ZM5.99992 7.33333H7.99992L5.33325 11.3333V8.66667H3.33325L5.99992 4.66667V7.33333Z" fill="white"/>
</svg>
