<svg width="20" height="20" viewBox="0 0 20 20" fill="none" xmlns="http://www.w3.org/2000/svg">
<path d="M16.6667 18.3333H3.33333C3.11232 18.3333 2.90036 18.2455 2.74408 18.0892C2.5878 17.9329 2.5 17.721 2.5 17.5V2.49996C2.5 2.27895 2.5878 2.06698 2.74408 1.9107C2.90036 1.75442 3.11232 1.66663 3.33333 1.66663H16.6667C16.8877 1.66663 17.0996 1.75442 17.2559 1.9107C17.4122 2.06698 17.5 2.27895 17.5 2.49996V17.5C17.5 17.721 17.4122 17.9329 17.2559 18.0892C17.0996 18.2455 16.8877 18.3333 16.6667 18.3333ZM15.8333 16.6666V3.33329H4.16667V16.6666H15.8333ZM7.5 4.99996V6.66663C7.5 7.32967 7.76339 7.96555 8.23223 8.43439C8.70107 8.90323 9.33696 9.16663 10 9.16663C10.663 9.16663 11.2989 8.90323 11.7678 8.43439C12.2366 7.96555 12.5 7.32967 12.5 6.66663V4.99996H14.1667V6.66663C14.1667 7.7717 13.7277 8.8315 12.9463 9.6129C12.1649 10.3943 11.1051 10.8333 10 10.8333C8.89493 10.8333 7.83512 10.3943 7.05372 9.6129C6.27232 8.8315 5.83333 7.7717 5.83333 6.66663V4.99996H7.5Z" fill="white"/>
</svg>
