<svg width="16" height="16" viewBox="0 0 16 16" fill="none" xmlns="http://www.w3.org/2000/svg">
<path d="M7.99992 1.33337C11.6819 1.33337 14.6666 4.31804 14.6666 8.00004C14.6666 11.682 11.6819 14.6667 7.99992 14.6667C4.31792 14.6667 1.33325 11.682 1.33325 8.00004C1.33325 4.31804 4.31792 1.33337 7.99992 1.33337ZM7.99992 2.66671C6.58543 2.66671 5.22888 3.22861 4.22868 4.2288C3.22849 5.229 2.66659 6.58555 2.66659 8.00004C2.66659 9.41453 3.22849 10.7711 4.22868 11.7713C5.22888 12.7715 6.58543 13.3334 7.99992 13.3334C9.41441 13.3334 10.771 12.7715 11.7712 11.7713C12.7713 10.7711 13.3333 9.41453 13.3333 8.00004C13.3333 6.58555 12.7713 5.229 11.7712 4.2288C10.771 3.22861 9.41441 2.66671 7.99992 2.66671ZM10.5553 4.89137C10.6317 4.83774 10.7247 4.81281 10.8177 4.82098C10.9108 4.82915 10.998 4.86989 11.0639 4.93604C11.1297 5.00187 11.1701 5.0889 11.1778 5.18168C11.1855 5.27445 11.16 5.36694 11.1059 5.44271C9.65259 7.47337 8.85259 8.56137 8.70725 8.70737C8.51952 8.89472 8.26514 8.99994 7.99992 8.99994C7.7347 8.99994 7.48031 8.89472 7.29259 8.70737C7.10524 8.51965 7.00002 8.26526 7.00002 8.00004C7.00002 7.73482 7.10524 7.48044 7.29259 7.29271C7.54192 7.04404 8.62925 6.24337 10.5553 4.89137ZM11.6666 7.33337C11.8434 7.33337 12.013 7.40361 12.138 7.52864C12.263 7.65366 12.3333 7.82323 12.3333 8.00004C12.3333 8.17685 12.263 8.34642 12.138 8.47145C12.013 8.59647 11.8434 8.66671 11.6666 8.66671C11.4898 8.66671 11.3202 8.59647 11.1952 8.47145C11.0702 8.34642 10.9999 8.17685 10.9999 8.00004C10.9999 7.82323 11.0702 7.65366 11.1952 7.52864C11.3202 7.40361 11.4898 7.33337 11.6666 7.33337ZM4.33325 7.33337C4.51006 7.33337 4.67963 7.40361 4.80466 7.52864C4.92968 7.65366 4.99992 7.82323 4.99992 8.00004C4.99992 8.17685 4.92968 8.34642 4.80466 8.47145C4.67963 8.59647 4.51006 8.66671 4.33325 8.66671C4.15644 8.66671 3.98687 8.59647 3.86185 8.47145C3.73682 8.34642 3.66659 8.17685 3.66659 8.00004C3.66659 7.82323 3.73682 7.65366 3.86185 7.52864C3.98687 7.40361 4.15644 7.33337 4.33325 7.33337ZM5.87859 4.93604C6.00359 5.06122 6.07375 5.23094 6.07362 5.40785C6.0735 5.58475 6.0031 5.75437 5.87792 5.87937C5.75274 6.00438 5.58302 6.07454 5.40611 6.07441C5.2292 6.07429 5.05959 6.00389 4.93459 5.87871C4.87269 5.81672 4.82361 5.74316 4.79014 5.6622C4.75668 5.58125 4.73949 5.4945 4.73955 5.4069C4.73961 5.31931 4.75692 5.23258 4.7905 5.15167C4.82408 5.07077 4.87327 4.99727 4.93525 4.93537C5.06043 4.81037 5.23015 4.74021 5.40706 4.74034C5.49465 4.7404 5.58138 4.75771 5.66228 4.79129C5.74319 4.82487 5.81669 4.87406 5.87859 4.93604ZM7.99992 3.66671C8.17673 3.66671 8.3463 3.73695 8.47132 3.86197C8.59635 3.98699 8.66659 4.15656 8.66659 4.33337C8.66659 4.51019 8.59635 4.67975 8.47132 4.80478C8.3463 4.9298 8.17673 5.00004 7.99992 5.00004C7.82311 5.00004 7.65354 4.9298 7.52851 4.80478C7.40349 4.67975 7.33325 4.51019 7.33325 4.33337C7.33325 4.15656 7.40349 3.98699 7.52851 3.86197C7.65354 3.73695 7.82311 3.66671 7.99992 3.66671Z" fill="white"/>
</svg>
